<svg viewBox="0 0 16 14" fill="none" xmlns="http://www.w3.org/2000/svg">
  <path fill-rule="evenodd" clip-rule="evenodd" d="M9.58338 12.8959C9.72284 13.0414 9.90567 13.1143 10.0885 13.1143C10.2713 13.1143 10.4542 13.0414 10.5936 12.8959L15.7912 7.47095C16.0701 7.17956 16.0701 6.70731 15.7912 6.41615L10.5936 0.989851C10.3151 0.698696 9.86252 0.698696 9.58338 0.989851C9.30424 1.28101 9.30424 1.75326 9.58338 2.04465L13.435 6.06604C13.3954 6.05939 13.3589 6.05594 13.3265 6.05594H0.629316C0.281851 6.05594 0 6.45347 0 6.94355C0 7.43363 0.281851 7.83089 0.629316 7.83089H13.3265C13.3588 7.83089 13.3953 7.82745 13.4348 7.82082L9.58338 11.8411C9.30424 12.1324 9.30424 12.6047 9.58338 12.8959Z" fill="#CBA3D8"/>
</svg>