<svg viewBox="0 0 24 24" fill="none" xmlns="http://www.w3.org/2000/svg">
  <path d="M6.9 21.975C6.4 21.975 5.975 21.8 5.625 21.45C5.275 21.1 5.1 20.675 5.1 20.175C5.1 19.675 5.275 19.25 5.625 18.9C5.975 18.55 6.4 18.375 6.9 18.375C7.38333 18.375 7.80417 18.55 8.1625 18.9C8.52083 19.25 8.7 19.675 8.7 20.175C8.7 20.675 8.525 21.1 8.175 21.45C7.825 21.8 7.4 21.975 6.9 21.975ZM16.9 21.975C16.4 21.975 15.975 21.8 15.625 21.45C15.275 21.1 15.1 20.675 15.1 20.175C15.1 19.675 15.275 19.25 15.625 18.9C15.975 18.55 16.4 18.375 16.9 18.375C17.3833 18.375 17.8042 18.55 18.1625 18.9C18.5208 19.25 18.7 19.675 18.7 20.175C18.7 20.675 18.525 21.1 18.175 21.45C17.825 21.8 17.4 21.975 16.9 21.975ZM5.6 5.475L8.35 11.175H15.55L18.675 5.475H5.6ZM4.85 3.975H19.575C20.1083 3.975 20.4458 4.1375 20.5875 4.4625C20.7292 4.7875 20.6833 5.15 20.45 5.55L17.075 11.625C16.9083 11.9083 16.675 12.1542 16.375 12.3625C16.075 12.5708 15.75 12.675 15.4 12.675H7.825L6.425 15.275H18.7V16.775H6.65C5.95 16.775 5.44583 16.5417 5.1375 16.075C4.82917 15.6083 4.83333 15.0833 5.15 14.5L6.75 11.55L2.95 3.5H1V2H3.925L4.85 3.975ZM8.35 11.175H15.55H8.35Z" fill="#494748"/>
</svg>