<?xml version="1.0" encoding="utf-8"?>
<!-- Generator: Adobe Illustrator 24.2.3, SVG Export Plug-In . SVG Version: 6.00 Build 0)  -->
<svg version="1.1" id="Layer_1" xmlns="http://www.w3.org/2000/svg" xmlns:xlink="http://www.w3.org/1999/xlink" x="0px" y="0px"
	 viewBox="0 0 61.6 66.4" style="enable-background:new 0 0 61.6 66.4;" xml:space="preserve">
<style type="text/css">
	.st0{fill:#FFFFFF;}
</style>
<g>
	<path class="st0" d="M54.8,55c0-1.3,1-2.3,2.3-2.3c1.2,0,2.3,1,2.3,2.3c0,1.3-1,2.3-2.3,2.3C55.8,57.3,54.8,56.3,54.8,55z M57,56.9
		c1,0,1.8-0.8,1.8-1.9c0-1.1-0.8-1.9-1.8-1.9c-1,0-1.8,0.8-1.8,1.9C55.2,56.1,56,56.9,57,56.9z M56.6,56.3h-0.4v-2.6h1
		c0.6,0,0.9,0.2,0.9,0.7c0,0.5-0.3,0.7-0.7,0.7l0.7,1.2h-0.4L57,55.2h-0.5V56.3z M57,54.9c0.3,0,0.6,0,0.6-0.4
		c0-0.3-0.3-0.4-0.6-0.4h-0.5v0.8H57z"/>
	<g>
		<g>
			<path class="st0" d="M1.9,66.4L0,60.6h1.4L2.2,63c0.2,0.7,0.4,1.4,0.5,2.1h0c0.1-0.7,0.3-1.4,0.5-2.1L4,60.6h1.4l-2,5.8H1.9z"/>
			<path class="st0" d="M7.1,60.6v5.8H5.7v-5.8H7.1z"/>
			<path class="st0" d="M9.2,64.9l-0.4,1.5H7.4l1.8-5.8H11l1.8,5.8h-1.4l-0.5-1.5H9.2z M10.7,63.9l-0.4-1.2
				c-0.1-0.3-0.2-0.8-0.3-1.1h0c-0.1,0.3-0.2,0.8-0.3,1.1l-0.3,1.2H10.7z"/>
			<path class="st0" d="M14.8,60.6h1.3v3.6c0,1.7-0.8,2.2-2.1,2.2c-0.3,0-0.7-0.1-1-0.1l0.1-1.1c0.2,0.1,0.4,0.1,0.7,0.1
				c0.6,0,0.9-0.3,0.9-1.2V60.6z"/>
			<path class="st0" d="M19.9,63.9h-2.1v1.4h2.4v1.1h-3.7v-5.8H20v1.1h-2.3v1.2h2.1V63.9z"/>
			<path class="st0" d="M20.8,65c0.3,0.2,0.9,0.4,1.4,0.4c0.6,0,0.9-0.2,0.9-0.6c0-0.4-0.3-0.6-0.9-0.8c-0.9-0.3-1.6-0.8-1.6-1.7
				c0-1,0.8-1.7,2.1-1.7c0.6,0,1.1,0.1,1.4,0.3l-0.3,1c-0.2-0.1-0.6-0.3-1.2-0.3c-0.6,0-0.8,0.3-0.8,0.5c0,0.4,0.3,0.5,1,0.8
				c1,0.4,1.5,0.9,1.5,1.7c0,0.9-0.7,1.8-2.3,1.8c-0.6,0-1.3-0.2-1.6-0.3L20.8,65z"/>
			<path class="st0" d="M26,60.7c0.3-0.1,1-0.1,1.7-0.1c0.8,0,1.3,0.1,1.7,0.3c0.4,0.2,0.7,0.6,0.7,1.1c0,0.5-0.3,1-0.9,1.2v0
				c0.7,0.2,1.1,0.7,1.1,1.4c0,0.5-0.2,0.9-0.6,1.2c-0.4,0.3-1.1,0.5-2.3,0.5c-0.6,0-1.1,0-1.4-0.1V60.7z M27.3,62.9h0.4
				c0.7,0,1-0.3,1-0.7c0-0.4-0.3-0.7-0.9-0.7c-0.3,0-0.4,0-0.6,0V62.9z M27.3,65.4c0.1,0,0.3,0,0.5,0c0.6,0,1.1-0.2,1.1-0.8
				c0-0.6-0.5-0.8-1.2-0.8h-0.4V65.4z"/>
			<path class="st0" d="M31.8,60.6v3.3c0,1,0.4,1.5,1.1,1.5c0.7,0,1.1-0.5,1.1-1.5v-3.3h1.3v3.2c0,1.8-0.9,2.7-2.4,2.7
				c-1.5,0-2.3-0.8-2.3-2.7v-3.2H31.8z"/>
			<path class="st0" d="M40.6,64.2c0-0.7-0.1-1.6-0.1-2.4h0c-0.2,0.7-0.4,1.6-0.7,2.3l-0.7,2.4h-1l-0.6-2.4
				c-0.2-0.7-0.4-1.5-0.5-2.3h0c0,0.8-0.1,1.7-0.1,2.4l-0.1,2.2h-1.2l0.4-5.8h1.8l0.6,2c0.2,0.7,0.4,1.4,0.5,2.1h0
				c0.2-0.7,0.4-1.4,0.6-2.1l0.6-1.9h1.7l0.3,5.8h-1.3L40.6,64.2z"/>
			<path class="st0" d="M45.9,63.9h-2.1v1.4h2.4v1.1h-3.7v-5.8H46v1.1h-2.3v1.2h2.1V63.9z"/>
			<path class="st0" d="M46.4,60.7c0.4-0.1,1-0.1,1.7-0.1c0.9,0,1.5,0.1,1.9,0.5c0.3,0.3,0.5,0.7,0.5,1.2c0,0.7-0.5,1.2-1,1.4v0
				c0.4,0.2,0.6,0.5,0.8,1.1c0.2,0.7,0.4,1.4,0.5,1.6h-1.3c-0.1-0.2-0.2-0.6-0.4-1.3c-0.2-0.7-0.4-0.9-0.9-0.9h-0.4v2.3h-1.3V60.7z
				 M47.7,63.2h0.5c0.7,0,1-0.3,1-0.8c0-0.5-0.4-0.8-1-0.8c-0.3,0-0.5,0-0.6,0V63.2z"/>
			<path class="st0" d="M52.8,64.9l-0.4,1.5H51l1.8-5.8h1.7l1.8,5.8h-1.4l-0.5-1.5H52.8z M54.3,63.9l-0.4-1.2
				c-0.1-0.3-0.2-0.8-0.3-1.1h0c-0.1,0.3-0.2,0.8-0.3,1.1L53,63.9H54.3z"/>
			<path class="st0" d="M56.8,66.4v-5.8h1.5l1.2,2.1c0.3,0.6,0.7,1.3,1,2h0c-0.1-0.8-0.1-1.6-0.1-2.4v-1.7h1.2v5.8h-1.4L59,64.2
				c-0.3-0.6-0.7-1.4-1-2.1l0,0c0,0.8,0.1,1.6,0.1,2.5v1.8H56.8z"/>
		</g>
	</g>
	<path class="st0" d="M49.1,33.1c-0.9-1-2-1.7-3.4-2.1c1.2-0.4,2.1-1,2.8-1.9c0.7-0.9,1.1-1.9,1.1-3.1c0-2.4-0.9-4.2-2.8-5.4
		c-1.9-1.2-4.5-1.7-8-1.7c-1.5,0-2.9,0.1-4.3,0.2c-0.9,0.1-1.7,0.2-2.4,0.4c-0.3,0-0.7,0.1-1,0.2c-0.6,0.2-1.1,0.4-1.6,0.6
		c-0.7,3-1.4,6-2.2,9c-0.8,3-1.5,5.8-2.3,8.3H25c-0.8-2.6-1.6-5.1-2.3-7.6c-0.7-2.4-1.5-5-2.2-7.6c-0.3-1.1-0.8-1.9-1.4-2.3
		c-0.6-0.4-7.8-6-8.2-5.7c0.3,1.2,2.5,9,2.9,10.4c0.4,1.4,0.8,2.7,1.3,4.1c0.5,1.4,0.9,2.8,1.4,4.2c0.5,1.4,1,2.7,1.5,3.9
		c0.5,1.2,0.9,2.3,1.4,3.3c0.4,1,0.8,1.8,1.1,2.4c0.3,0.6,0.9,1.1,1.7,1.4c0.8,0.3,1.8,0.5,2.9,0.5c0.9,0,1.8-0.1,2.6-0.4
		c0.8-0.2,1.4-0.5,1.8-0.9c0.2-0.2,0.3-0.5,0.5-0.9c0.4,0.6,1,1,1.8,1.3c0.5,0.2,1.1,0.4,1.8,0.5c0.6,0.1,1.3,0.2,2,0.3
		c0.7,0.1,1.3,0.1,1.9,0.2c0.6,0,1.2,0,1.6,0c3.7,0,6.6-0.6,8.6-1.9c2-1.3,3-3.3,3-5.9C50.5,35.4,50,34.1,49.1,33.1z M38.9,24.2
		c1.2,0,2.1,0.2,2.7,0.6c0.6,0.4,0.9,1,0.9,1.7c0,0.8-0.3,1.5-0.8,1.9c-0.5,0.4-1.4,0.6-2.5,0.6h-3v-4.8c0.3-0.1,0.7-0.1,1.2-0.1
		C38,24.2,38.5,24.2,38.9,24.2z M42.1,38.7c-0.7,0.4-1.6,0.7-2.7,0.7c-0.5,0-1.1,0-1.7-0.1c-0.6,0-1.1-0.1-1.5-0.2v-4.9h3.3
		c1.2,0,2.1,0.2,2.7,0.6c0.6,0.4,0.9,1,0.9,1.9C43.2,37.5,42.8,38.2,42.1,38.7z"/>
	<g>
		<path class="st0" d="M58.5,28.6c-0.2,0-0.4,0.1-0.6,0.1c0,14.9-12.2,27-27,27c-14.9,0-27-12.1-27-27s12.1-27,27-27
			c2.3,0,4.5,0.3,6.6,0.8c0.1-0.5,0.3-1,0.5-1.4C35.7,0.3,33.3,0,30.9,0C15.1,0,2.3,12.8,2.3,28.5c0,15.7,12.8,28.5,28.5,28.5
			c15.7,0,28.5-12.8,28.5-28.5c0-0.1,0-0.2,0-0.2C59.1,28.4,58.8,28.5,58.5,28.6z"/>
	</g>
	<path class="st0" d="M42.4,2.4c-0.3-0.1-0.6-0.3-0.6-0.3s-2.5-1-1.6,1.9c0.3,1.1,0.9,1.9,1.4,2.4C42.6,4.4,42.4,2.6,42.4,2.4z"/>
	<path class="st0" d="M59.1,23.8l-1.7-11.4c0,0-1-4.1-4.3-5.5c-1.8-0.8-5.2-2.2-7.8-3.3c0,0.6-0.1,2.5-1,4.4l7.9,2.8
		c0,0,1.9,0.6,2.3,2.9c0.4,2.3,1.4,10.3,1.4,10.3s0.4,2.4,2.1,2.1C59.4,25.8,59.1,23.8,59.1,23.8z"/>
	<path class="st0" d="M41.9,6.8c0.5,0.4,0.8,0.6,0.9,0.6c1.2-2.1,1.1-4.4,1.1-4.4l0-0.1c-0.3-0.1-0.6-0.3-0.9-0.4
		C43.1,4.2,42.2,6.2,41.9,6.8z"/>
</g>
</svg>
