<svg width="21" height="22" viewBox="0 0 21 22" fill="none" xmlns="http://www.w3.org/2000/svg">
<path d="M1.5 21.6996C1.1 21.6996 0.75 21.5496 0.45 21.2496C0.15 20.9496 0 20.5996 0 20.1996V5.19961C0 4.79961 0.15 4.44961 0.45 4.14961C0.75 3.84961 1.1 3.69961 1.5 3.69961H11.625L10.125 5.19961H1.5V20.1996H16.5V11.4996L18 9.99961V20.1996C18 20.5996 17.85 20.9496 17.55 21.2496C17.25 21.5496 16.9 21.6996 16.5 21.6996H1.5ZM13.55 3.89961L14.625 4.94961L7.5 12.0496V14.1996H9.625L16.775 7.04961L17.825 8.09961L10.25 15.6996H6V11.4496L13.55 3.89961ZM17.825 8.09961L13.55 3.89961L16.05 1.39961C16.3333 1.11628 16.6875 0.974609 17.1125 0.974609C17.5375 0.974609 17.8917 1.12461 18.175 1.42461L20.275 3.54961C20.5583 3.84961 20.7 4.20378 20.7 4.61211C20.7 5.02044 20.55 5.36628 20.25 5.64961L17.825 8.09961Z" fill="#7474C1"/>
</svg>
