<svg viewBox="0 0 24 23" fill="none" xmlns="http://www.w3.org/2000/svg">
  <path d="M12 23L10.77 21.839C8.65 19.8099 6.9 18.058 5.52 16.5832C4.14 15.1085 3.04 13.7906 2.22 12.6296C1.4 11.4686 0.825 10.4175 0.495 9.47612C0.165 8.53479 0 7.58299 0 6.62074C0 4.73806 0.605 3.16394 1.815 1.89836C3.025 0.632787 4.52 0 6.3 0C7.44 0 8.495 0.282401 9.465 0.847203C10.435 1.41201 11.28 2.22783 12 3.29468C12.84 2.16507 13.73 1.33356 14.67 0.800136C15.61 0.266712 16.62 0 17.7 0C19.48 0 20.975 0.632787 22.185 1.89836C23.395 3.16394 24 4.73806 24 6.62074C24 7.58299 23.835 8.53479 23.505 9.47612C23.175 10.4175 22.6 11.4686 21.78 12.6296C20.96 13.7906 19.86 15.1085 18.48 16.5832C17.1 18.058 15.35 19.8099 13.23 21.839L12 23ZM12 20.5211C14.02 18.5757 15.685 16.9075 16.995 15.5164C18.305 14.1253 19.345 12.9068 20.115 11.8608C20.885 10.8149 21.425 9.88404 21.735 9.06821C22.045 8.25239 22.2 7.43656 22.2 6.62074C22.2 5.24011 21.78 4.10527 20.94 3.21623C20.1 2.32719 19.02 1.88267 17.7 1.88267C16.68 1.88267 15.73 2.21214 14.85 2.87108C13.97 3.53001 13.26 4.45566 12.72 5.64802H11.25C10.73 4.47658 10.03 3.55616 9.15 2.88677C8.27 2.21737 7.32 1.88267 6.3 1.88267C4.98 1.88267 3.9 2.32719 3.06 3.21623C2.22 4.10527 1.8 5.24011 1.8 6.62074C1.8 7.43656 1.955 8.25762 2.265 9.0839C2.575 9.91019 3.115 10.8515 3.885 11.9079C4.655 12.9643 5.7 14.1828 7.02 15.5634C8.34 16.9441 10 18.5966 12 20.5211Z" fill="#7474C1"/>
</svg>