

<svg viewBox="0 0 24 23" fill="none" xmlns="http://www.w3.org/2000/svg">
  <path fill-rule="evenodd" clip-rule="evenodd" d="M10.77 21.839L12 23L13.23 21.839C15.35 19.8099 17.1 18.058 18.48 16.5832C19.86 15.1085 20.96 13.7906 21.78 12.6296C22.6 11.4686 23.175 10.4175 23.505 9.47612C23.835 8.53479 24 7.58299 24 6.62074C24 4.73806 23.395 3.16394 22.185 1.89836C20.975 0.632787 19.48 0 17.7 0C16.62 0 15.61 0.266712 14.67 0.800136C13.73 1.33356 12.84 2.16507 12 3.29468C11.28 2.22783 10.435 1.41201 9.465 0.847203C8.495 0.282401 7.44 0 6.3 0C4.52 0 3.025 0.632787 1.815 1.89836C0.605 3.16394 0 4.73806 0 6.62074C0 7.58299 0.165 8.53479 0.495 9.47612C0.825 10.4175 1.4 11.4686 2.22 12.6296C3.04 13.7906 4.14 15.1085 5.52 16.5832C6.9 18.058 8.65 19.8099 10.77 21.839Z" fill="#7474C1"/>
</svg>