
<svg viewBox="0 0 26 23" fill="none" xmlns="http://www.w3.org/2000/svg">
  <path d="M22.7824 13.8889H9.55013L9.84556 15.2778H21.9617C22.6568 15.2778 23.1721 15.8985 23.018 16.5503L22.769 17.6039C23.6127 17.9977 24.1944 18.8293 24.1944 19.7917C24.1944 21.1459 23.0426 22.2415 21.6295 22.222C20.2833 22.2033 19.1762 21.1529 19.1398 19.8588C19.12 19.1519 19.4145 18.5112 19.8983 18.0555H10.435C10.9034 18.4967 11.1944 19.1114 11.1944 19.7917C11.1944 21.1724 9.997 22.2843 8.54615 22.2195C7.25788 22.162 6.21016 21.1612 6.14246 19.9228C6.09019 18.9664 6.61353 18.1235 7.40865 17.6838L4.23778 2.77778H1.08333C0.485017 2.77778 0 2.31141 0 1.73611V1.04167C0 0.466363 0.485017 0 1.08333 0H5.71138C6.22601 0 6.66959 0.348134 6.77273 0.832899L7.18647 2.77778H24.9162C25.6114 2.77778 26.1267 3.39848 25.9726 4.0503L23.8388 13.0781C23.7267 13.5523 23.2882 13.8889 22.7824 13.8889ZM18.4167 7.29167H16.25V5.55556C16.25 5.17201 15.9267 4.86111 15.5278 4.86111H14.8056C14.4067 4.86111 14.0833 5.17201 14.0833 5.55556V7.29167H11.9167C11.5178 7.29167 11.1944 7.60256 11.1944 7.98611V8.68056C11.1944 9.06411 11.5178 9.375 11.9167 9.375H14.0833V11.1111C14.0833 11.4947 14.4067 11.8056 14.8056 11.8056H15.5278C15.9267 11.8056 16.25 11.4947 16.25 11.1111V9.375H18.4167C18.8156 9.375 19.1389 9.06411 19.1389 8.68056V7.98611C19.1389 7.60256 18.8156 7.29167 18.4167 7.29167Z" fill="#7474C1"/>
</svg>