
<svg  viewBox="0 0 26 23" fill="none" xmlns="http://www.w3.org/2000/svg">
  <path fill-rule="evenodd" clip-rule="evenodd" d="M0 0.741357C0 0.331917 0.333645 0 0.745216 0H4.5748C4.92274 0 5.22437 0.239526 5.30149 0.577057L5.8659 3.04761H25.2549C25.4723 3.04761 25.6789 3.14208 25.8205 3.30624C25.962 3.47041 26.0245 3.6879 25.9914 3.90169L24.4596 13.8071C24.4037 14.1687 24.0909 14.4357 23.723 14.4357H8.46757L8.99924 16.7629H22.1909C22.6025 16.7629 22.9361 17.0948 22.9361 17.5043C22.9361 17.7215 22.8422 17.9169 22.6926 18.0525C23.3577 18.4378 23.8048 19.1549 23.8048 19.9758C23.8048 21.2041 22.8039 22.1999 21.5692 22.1999C20.3344 22.1999 19.3335 21.2041 19.3335 19.9758C19.3335 19.2769 19.6575 18.6534 20.1642 18.2456H10.3064C10.8132 18.6534 11.1372 19.2769 11.1372 19.9758C11.1372 21.2041 10.1362 22.1999 8.90151 22.1999C7.6668 22.1999 6.66586 21.2041 6.66586 19.9758C6.66586 19.1224 7.14896 18.3813 7.85793 18.0084C7.77109 17.9153 7.70756 17.7993 7.6777 17.6686L3.97995 1.48271H0.745216C0.333645 1.48271 0 1.1508 0 0.741357ZM16.3539 5.9524C16.3539 5.50811 15.8535 5.14795 15.2361 5.14795C14.6187 5.14795 14.1183 5.50811 14.1183 5.9524V7.37231H12.6904C12.2438 7.37231 11.8817 7.87019 11.8817 8.48435C11.8817 9.09851 12.2438 9.59639 12.6904 9.59639H14.1183V11.0157C14.1183 11.46 14.6187 11.8202 15.2361 11.8202C15.8535 11.8202 16.3539 11.46 16.3539 11.0157V9.59639H17.78C18.2266 9.59639 18.5887 9.09851 18.5887 8.48435C18.5887 7.87019 18.2266 7.37231 17.78 7.37231H16.3539V5.9524ZM8.23162 12.953L6.27782 4.53032H24.3862L23.0837 12.953H8.23162Z" fill="#7474C1"/>
</svg>